<svg width="205" height="50">
 <g font-family="Arial" font-weight="bold" font-size="66.5">
  <text fill="#DD0000" x="0" y="0"  transform="matrix(0.65,0,0,0.001,1,49)">T</text>
  <text fill="#0000EE" x="0" y="0"  transform="matrix(0.59,0,0,0.185,0,48.95)">C</text>
  <text fill="#00BB00" x="0" y="0"  transform="matrix(0.53,0,0,0.204,2,39.7)">A</text>
  <text fill="#F9A500" x="0" y="0"  transform="matrix(0.55,0,0,0.610,0,29.5)">G</text>
  
  <text fill="#DD0000" x="0" y="0"  transform="matrix(0.65,0,0,0.023,26,49)">T</text>
  <text fill="#0000EE" x="0" y="0"  transform="matrix(0.59,0,0,0.041,25,47.85)">C</text>
  <text fill="#00BB00" x="0" y="0"  transform="matrix(0.53,0,0,0.059,27,45.8)">A</text>
  <text fill="#F9A500" x="0" y="0"  transform="matrix(0.55,0,0,0.877,25,42.85)">G</text>
  
  <text fill="#DD0000" x="0" y="0"  transform="matrix(0.65,0,0,0.022,51,49)">T</text>
  <text fill="#0000EE" x="0" y="0"  transform="matrix(0.59,0,0,0.024,50,47.9)">C</text>
  <text fill="#00BB00" x="0" y="0"  transform="matrix(0.53,0,0,0.063,52,46.7)">A</text>
  <text fill="#F9A500" x="0" y="0"  transform="matrix(0.55,0,0,0.891,50,43.55)">G</text>
  
  <text fill="#00BB00" x="0" y="0"  transform="matrix(0.53,0,0,0.001,77,49)">A</text>
  <text fill="#0000EE" x="0" y="0"  transform="matrix(0.59,0,0,0.029,75,48.95)">C</text>
  <text fill="#F9A500" x="0" y="0"  transform="matrix(0.55,0,0,0.037,75,47.5)">G</text>
  <text fill="#DD0000" x="0" y="0"  transform="matrix(0.65,0,0,0.933,76,45.65)">T</text>
  
  <text fill="#00BB00" x="0" y="0"  transform="matrix(0.53,0,0,0.001,102,49)">A</text>
  <text fill="#0000EE" x="0" y="0"  transform="matrix(0.59,0,0,0.001,100,48.95)">C</text>
  <text fill="#F9A500" x="0" y="0"  transform="matrix(0.55,0,0,0.001,100,48.9)">G</text>
  <text fill="#DD0000" x="0" y="0"  transform="matrix(0.65,0,0,0.997,101,48.85)">T</text>
  
  <text fill="#F9A500" x="0" y="0"  transform="matrix(0.55,0,0,0.001,125,49)">G</text>
  <text fill="#00BB00" x="0" y="0"  transform="matrix(0.53,0,0,0.025,127,48.95)">A</text>
  <text fill="#DD0000" x="0" y="0"  transform="matrix(0.65,0,0,0.047,126,47.7)">T</text>
  <text fill="#0000EE" x="0" y="0"  transform="matrix(0.59,0,0,0.927,125,45.35)">C</text>
  
  <text fill="#0000EE" x="0" y="0"  transform="matrix(0.59,0,0,0.001,150,49)">C</text>
  <text fill="#DD0000" x="0" y="0"  transform="matrix(0.65,0,0,0.001,151,48.95)">T</text>
  <text fill="#00BB00" x="0" y="0"  transform="matrix(0.53,0,0,0.014,152,48.9)">A</text>
  <text fill="#F9A500" x="0" y="0"  transform="matrix(0.55,0,0,0.984,150,48.2)">G</text>
  
  <text fill="#0000EE" x="0" y="0"  transform="matrix(0.59,0,0,0.001,175,49)">C</text>
  <text fill="#F9A500" x="0" y="0"  transform="matrix(0.55,0,0,0.001,175,48.95)">G</text>
  <text fill="#DD0000" x="0" y="0"  transform="matrix(0.65,0,0,0.001,176,48.9)">T</text>
  <text fill="#00BB00" x="0" y="0"  transform="matrix(0.53,0,0,0.997,177,48.85)">A</text>
  
 </g>
</svg>
